<svg width="20" height="20" viewBox="0 0 20 20" fill="none" xmlns="http://www.w3.org/2000/svg">
<path d="M19.3803 12.5578L13.4819 3.10471C12.7267 1.89438 11.425 1.17188 10 1.17188C8.57498 1.17188 7.27325 1.89438 6.5181 3.10471L0.619659 12.5578C0.214233 13.2076 0 13.9575 0 14.7266C0 16.9882 1.8399 18.8281 4.10156 18.8281H15.8984C18.1601 18.8281 20 16.9882 20 14.7266C20 13.9575 19.7858 13.2076 19.3803 12.5578ZM15.8984 17.6562H4.10156C2.48611 17.6562 1.17188 16.342 1.17188 14.7266C1.17188 14.1771 1.32477 13.6417 1.61392 13.1783L7.51236 3.72513C8.05206 2.86011 8.98193 2.34375 10 2.34375C11.0181 2.34375 11.9479 2.86011 12.4876 3.72513L18.3861 13.1783C18.6752 13.6417 18.8281 14.1771 18.8281 14.7266C18.8281 16.342 17.5139 17.6562 15.8984 17.6562Z" fill="#C0BDBD"/>
<path d="M11.4935 4.3454C11.1693 3.82584 10.611 3.51562 10 3.51562C9.38904 3.51562 8.83072 3.82584 8.50647 4.3454L2.60818 13.7985C2.43515 14.0758 2.34375 14.3967 2.34375 14.7266C2.34375 15.6958 3.13232 16.4844 4.10156 16.4844H15.8984C16.8677 16.4844 17.6562 15.6958 17.6562 14.7266C17.6562 14.3967 17.5648 14.0758 17.392 13.7985L11.4935 4.3454ZM10.5859 14.1016H9.41406V12.9297H10.5859V14.1016ZM10.5859 11.7578H9.41406V7.61719H10.5859V11.7578Z" fill="#C0BDBD"/>
</svg>
