<svg width="20" height="20" viewBox="0 0 20 20" fill="none" xmlns="http://www.w3.org/2000/svg">
<path d="M10.7319 2.0726V0.585938C10.7319 0.262299 10.4043 0 9.99997 0C9.59567 0 9.26801 0.262299 9.26801 0.585938V2.0726C8.11765 2.32941 7.27075 3.1752 7.27075 4.17694V6.21368C7.27075 7.21542 8.11765 8.06122 9.26801 8.31802V19.4141C9.26801 19.7377 9.59567 20 9.99997 20C10.4043 20 10.7319 19.7377 10.7319 19.4141V8.31802C11.8825 8.06122 12.7292 7.21542 12.7292 6.21368V4.17694C12.7292 3.1752 11.8825 2.32941 10.7319 2.0726ZM11.2653 6.21368C11.2653 6.77216 10.6976 7.22656 9.99997 7.22656C9.30232 7.22656 8.73467 6.77216 8.73467 6.21368V4.17694C8.73467 3.61847 9.30232 3.16406 9.99997 3.16406C10.6976 3.16406 11.2653 3.61847 11.2653 4.17694V6.21368Z" fill="#C0BDBD"/>
<path d="M3.46117 6.14304V0.585938C3.46117 0.262299 3.13351 0 2.72921 0C2.32492 0 1.99726 0.262299 1.99726 0.585938V6.14304C0.846899 6.39984 0 7.24548 0 8.24722V10.284C0 11.2857 0.846899 12.1315 1.99726 12.3883V19.4141C1.99726 19.7377 2.32492 20 2.72921 20C3.13351 20 3.46117 19.7377 3.46117 19.4141V12.3883C4.61172 12.1315 5.45843 11.2857 5.45843 10.284V8.24722C5.45843 7.24548 4.61172 6.39969 3.46117 6.14304ZM3.99451 10.284C3.99451 10.8426 3.42686 11.2968 2.72921 11.2968C2.03157 11.2968 1.46392 10.8426 1.46392 10.284V8.24722C1.46392 7.68875 2.03157 7.23434 2.72921 7.23434C3.42686 7.23434 3.99451 7.68875 3.99451 8.24722V10.284Z" fill="#C0BDBD"/>
<path d="M18.0027 10.7884V0.585938C18.0027 0.262299 17.675 0 17.2707 0C16.8664 0 16.5388 0.262299 16.5388 0.585938V10.7884C15.3884 11.0452 14.5415 11.891 14.5415 12.8928V14.9295C14.5415 15.9312 15.3884 16.777 16.5388 17.0338V19.4141C16.5388 19.7377 16.8664 20 17.2707 20C17.675 20 18.0027 19.7377 18.0027 19.4141V17.0337C19.1532 16.7769 19.9999 15.9312 19.9999 14.9295V12.8928C19.9999 11.891 19.1532 11.0452 18.0027 10.7884ZM18.536 14.9295C18.536 15.488 17.9684 15.9424 17.2707 15.9424C16.5731 15.9424 16.0054 15.488 16.0054 14.9295V12.8928C16.0054 12.3341 16.5731 11.8797 17.2707 11.8797C17.9684 11.8797 18.536 12.3341 18.536 12.8928V14.9295Z" fill="#C0BDBD"/>
</svg>
