<svg width="20" height="20" viewBox="0 0 20 20" fill="none" xmlns="http://www.w3.org/2000/svg">
<g clip-path="url(#clip0)">
<path d="M18.6328 5.87891C18.471 5.87891 18.3398 6.01004 18.3398 6.17188V17.1404C18.3398 17.3171 18.196 17.4609 18.0192 17.4609H1.98078C1.80398 17.4609 1.66016 17.3171 1.66016 17.1404V15.5078C1.66016 15.346 1.52898 15.2148 1.36719 15.2148C1.20539 15.2148 1.07422 15.346 1.07422 15.5078V17.1404C1.07422 17.6402 1.4809 18.0469 1.98078 18.0469H2.8259V19.3164C2.8259 19.6933 3.13258 20 3.50949 20H7.18137C7.55828 20 7.86496 19.6933 7.86496 19.3164V18.0469H12.0056V19.3164C12.0056 19.6933 12.3123 20 12.6892 20H16.3611C16.738 20 17.0446 19.6933 17.0446 19.3164V18.0469H18.0193C18.5191 18.0469 18.9258 17.6402 18.9258 17.1404V6.17188C18.9258 6.01004 18.7946 5.87891 18.6328 5.87891ZM7.27902 19.3164C7.27902 19.3703 7.2352 19.4141 7.18137 19.4141H3.50949C3.45566 19.4141 3.41184 19.3703 3.41184 19.3164V18.0469H7.27902V19.3164ZM16.4587 19.3164C16.4587 19.3703 16.4149 19.4141 16.3611 19.4141H12.6892C12.6354 19.4141 12.5915 19.3703 12.5915 19.3164V18.0469H16.4587V19.3164Z" fill="#C0BDBD"/>
<path d="M18.0192 0H1.98078C1.4809 0 1.07422 0.406641 1.07422 0.906523V14.0625C1.07422 14.2243 1.20539 14.3555 1.36719 14.3555C1.52898 14.3555 1.66016 14.2243 1.66016 14.0625V0.906523C1.66016 0.729766 1.80398 0.585938 1.98078 0.585938H18.0193C18.1961 0.585938 18.3399 0.729766 18.3399 0.906523V4.76562C18.3399 4.92746 18.4711 5.05859 18.6329 5.05859C18.7946 5.05859 18.9258 4.92746 18.9258 4.76562V0.906523C18.9258 0.406641 18.5191 0 18.0192 0V0Z" fill="#C0BDBD"/>
<path d="M2.37929 11.0999V12.9829C2.37929 13.4654 2.7312 13.8671 3.19183 13.9454V14.9155C3.19183 15.4252 3.60648 15.8398 4.11612 15.8398H15.7544C16.2641 15.8398 16.6787 15.4252 16.6787 14.9155V3.13133C16.6787 2.62168 16.2641 2.20703 15.7544 2.20703H11.9782C11.8164 2.20703 11.6852 2.33816 11.6852 2.5C11.6852 2.66184 11.8164 2.79297 11.9782 2.79297H15.7544C15.941 2.79297 16.0928 2.94477 16.0928 3.13133V14.9155C16.0928 15.1021 15.941 15.2539 15.7544 15.2539H4.11612C3.92956 15.2539 3.77776 15.1021 3.77776 14.9155V13.9454C4.23839 13.8671 4.5903 13.4654 4.5903 12.9829V11.1C4.5903 10.6174 4.23839 10.2157 3.77776 10.1375V7.90949C4.23839 7.83121 4.5903 7.42953 4.5903 6.94699V5.06406C4.5903 4.58148 4.23839 4.1798 3.77776 4.10156V3.13133C3.77776 2.94477 3.92956 2.79297 4.11612 2.79297H10.3067C10.4685 2.79297 10.5997 2.66184 10.5997 2.5C10.5997 2.33816 10.4685 2.20703 10.3067 2.20703H4.11612C3.60648 2.20703 3.19183 2.62168 3.19183 3.13133V4.10148C2.7312 4.17977 2.37929 4.58145 2.37929 5.06398V6.94691C2.37929 7.42949 2.7312 7.83117 3.19183 7.90941V10.1374C2.7312 10.2157 2.37929 10.6173 2.37929 11.0999ZM4.00437 11.0999V12.9829C4.00437 13.1982 3.82913 13.3735 3.61374 13.3735H3.35585C3.14046 13.3735 2.96523 13.1982 2.96523 12.9829V11.0999C2.96523 10.8845 3.14046 10.7093 3.35585 10.7093H3.61374C3.82913 10.7093 4.00437 10.8846 4.00437 11.0999ZM2.96523 6.94695V5.06402C2.96523 4.84863 3.14046 4.6734 3.35585 4.6734H3.61374C3.82913 4.6734 4.00437 4.84863 4.00437 5.06402V6.94695C4.00437 7.16234 3.82913 7.33758 3.61374 7.33758H3.35585C3.14046 7.33758 2.96523 7.1623 2.96523 6.94695Z" fill="#C0BDBD"/>
<path d="M13.1986 12.2087C13.3214 12.314 13.5063 12.3 13.6117 12.1772C14.3645 11.3005 14.779 10.1805 14.779 9.02344C14.779 6.35258 12.6061 4.17969 9.93527 4.17969C7.26441 4.17969 5.09152 6.35258 5.09152 9.02344C5.09152 11.6943 7.26441 13.8672 9.93527 13.8672C10.8489 13.8672 11.7388 13.6114 12.5088 13.1276C12.6458 13.0415 12.6871 12.8607 12.601 12.7237C12.5149 12.5867 12.3341 12.5455 12.1971 12.6315C11.5206 13.0566 10.7385 13.2812 9.93527 13.2812C7.5875 13.2812 5.67746 11.3712 5.67746 9.02344C5.67746 6.67566 7.5875 4.76562 9.93527 4.76562C12.283 4.76562 14.1931 6.67566 14.1931 9.02344C14.1931 10.0405 13.8287 11.025 13.1671 11.7955C13.0618 11.9183 13.0758 12.1033 13.1986 12.2087Z" fill="#C0BDBD"/>
<path d="M12.9716 9.31616C13.1334 9.31616 13.2646 9.18503 13.2646 9.02319C13.2646 8.86135 13.1334 8.73022 12.9716 8.73022H11.8459C11.7979 8.41561 11.6735 8.12592 11.4926 7.88018L12.2895 7.08334C12.4039 6.96893 12.4039 6.78342 12.2895 6.66904C12.1751 6.55459 11.9896 6.55463 11.8752 6.66901L11.0783 7.46584C10.8326 7.28502 10.5429 7.16061 10.2283 7.1126V5.98682C10.2283 5.82498 10.0971 5.69385 9.93531 5.69385C9.77352 5.69385 9.64235 5.82498 9.64235 5.98682V7.1126C9.32774 7.16065 9.03805 7.28502 8.79231 7.46588L7.99543 6.66901C7.88102 6.55463 7.69551 6.55459 7.58114 6.66904C7.46672 6.78346 7.46672 6.96897 7.58114 7.08334L8.37801 7.88018C8.19715 8.12592 8.07278 8.41565 8.02473 8.73022H6.89899C6.73719 8.73022 6.60602 8.86135 6.60602 9.02319C6.60602 9.18503 6.73719 9.31616 6.89899 9.31616H8.02473C8.07278 9.63077 8.19715 9.92046 8.37801 10.1662L7.58114 10.963C7.46672 11.0775 7.46672 11.263 7.58114 11.3773C7.69555 11.4918 7.88102 11.4918 7.99543 11.3774L8.79231 10.5805C9.03805 10.7613 9.32774 10.8857 9.64235 10.9338V12.0596C9.64235 12.2214 9.77352 12.3525 9.93531 12.3525C10.0971 12.3525 10.2283 12.2214 10.2283 12.0596V10.9338C10.5429 10.8857 10.8326 10.7614 11.0783 10.5805L11.8752 11.3774C11.9896 11.4918 12.1751 11.4918 12.2895 11.3773C12.4039 11.2629 12.4039 11.0774 12.2895 10.963L11.4926 10.1662C11.6735 9.92046 11.7979 9.63077 11.8459 9.31616H12.9716ZM9.93528 10.37C9.19262 10.37 8.58844 9.76581 8.58844 9.02319C8.58844 8.28057 9.19262 7.67635 9.93528 7.67635C10.6779 7.67635 11.2822 8.28057 11.2822 9.02319C11.2822 9.76581 10.6779 10.37 9.93528 10.37Z" fill="#C0BDBD"/>
</g>
<defs>
<clipPath id="clip0">
<rect width="20" height="20" fill="white"/>
</clipPath>
</defs>
</svg>
