<svg width="20" height="20" viewBox="0 0 20 20" fill="none" xmlns="http://www.w3.org/2000/svg">
<path d="M9.34341 0H10.6573V3.55469H9.34341V0Z" fill="#C0BDBD"/>
<path d="M0 5.5271L0.657036 4.51209L4.0705 6.26994L3.41347 7.28495L0 5.5271Z" fill="#C0BDBD"/>
<path d="M15.9295 6.26953L19.343 4.51168L20 5.52669L16.5865 7.28454L15.9295 6.26953Z" fill="#C0BDBD"/>
<path d="M3.84729 1.66626L4.98528 1.08022L6.9561 4.12482L5.81811 4.71086L3.84729 1.66626Z" fill="#C0BDBD"/>
<path d="M13.0455 4.12622L15.0163 1.08162L16.1543 1.66766L14.1835 4.71226L13.0455 4.12622Z" fill="#C0BDBD"/>
<path d="M13.285 14.3829C14.8688 13.4368 15.9127 11.8279 15.9127 10C15.9127 7.08754 13.2657 4.72656 10.0004 4.72656C6.73503 4.72656 4.08801 7.08754 4.08801 10C4.08801 11.8279 5.13196 13.4368 6.71572 14.3829V16.4453H13.285V14.3829ZM11.9711 11.7578H10.6573V15.2734H9.34343V11.7578H8.02957V10.5859H11.9711V11.7578Z" fill="#C0BDBD"/>
<path d="M6.71571 18.2031C6.71571 19.1739 7.59805 20 8.68649 20H11.3142C12.4026 20 13.285 19.1739 13.285 18.2031V17.6172H6.71571V18.2031Z" fill="#C0BDBD"/>
</svg>
