<svg width="16" height="20" viewBox="0 0 16 20" fill="none" xmlns="http://www.w3.org/2000/svg">
<path d="M7.879 9.63402C9.14813 9.63402 10.2471 9.15932 11.145 8.22274C12.0429 7.28632 12.4981 6.14054 12.4981 4.81685C12.4981 3.49362 12.0429 2.3477 11.1449 1.41097C10.2468 0.474697 9.14798 0 7.879 0C6.60973 0 5.51106 0.474697 4.61313 1.41112C3.7152 2.34755 3.25987 3.49347 3.25987 4.81685C3.25987 6.14054 3.7152 7.28647 4.61328 8.22289C5.51135 9.15917 6.61017 9.63402 7.879 9.63402Z" fill="#C0BDBD"/>
<path d="M15.9612 15.3788C15.9353 14.9891 15.8829 14.564 15.8058 14.1151C15.728 13.6628 15.6278 13.2353 15.5078 12.8445C15.3839 12.4406 15.2153 12.0418 15.007 11.6595C14.7907 11.2628 14.5367 10.9173 14.2517 10.6331C13.9537 10.3357 13.5887 10.0966 13.1668 9.92218C12.7463 9.74869 12.2803 9.6608 11.7818 9.6608C11.586 9.6608 11.3967 9.74457 11.031 9.99283C10.806 10.1459 10.5428 10.3229 10.249 10.5186C9.99777 10.6856 9.65744 10.842 9.23708 10.9836C8.82697 11.122 8.41056 11.1922 7.99956 11.1922C7.58857 11.1922 7.1723 11.122 6.76175 10.9836C6.34183 10.8421 6.0015 10.6857 5.75057 10.5188C5.45955 10.3249 5.19619 10.1479 4.96779 9.99267C4.60259 9.74441 4.41312 9.66064 4.21735 9.66064C3.71871 9.66064 3.25285 9.74869 2.83249 9.92233C2.41081 10.0964 2.04576 10.3355 1.74743 10.6332C1.46255 10.9177 1.20841 11.263 0.992447 11.6595C0.784242 12.0418 0.615689 12.4405 0.491614 12.8447C0.371783 13.2354 0.271558 13.6628 0.193719 14.1151C0.116612 14.5634 0.0642318 14.9887 0.0383342 15.3793C0.0128756 15.762 0 16.1592 0 16.5603C0 17.6043 0.318233 18.4495 0.945772 19.0728C1.56556 19.6879 2.38565 19.9999 3.38292 19.9999H12.6171C13.6144 19.9999 14.4341 19.688 15.0541 19.0728C15.6818 18.4499 16 17.6046 16 16.5602C15.9999 16.1572 15.9868 15.7597 15.9612 15.3788Z" fill="#C0BDBD"/>
</svg>
